<svg width="18" height="17" viewBox="0 0 18 17" fill="none" xmlns="http://www.w3.org/2000/svg">
<path d="M6.1875 6.77796H5.875M9.3125 6.77796H9M12.4375 6.77796H12.125M6.1875 6.77796C6.1875 6.86084 6.15458 6.94032 6.09597 6.99893C6.03737 7.05753 5.95788 7.09046 5.875 7.09046C5.79212 7.09046 5.71263 7.05753 5.65403 6.99893C5.59542 6.94032 5.5625 6.86084 5.5625 6.77796C5.5625 6.69508 5.59542 6.61559 5.65403 6.55698C5.71263 6.49838 5.79212 6.46546 5.875 6.46546C5.95788 6.46546 6.03737 6.49838 6.09597 6.55698C6.15458 6.61559 6.1875 6.69508 6.1875 6.77796V6.77796ZM9.3125 6.77796C9.3125 6.86084 9.27958 6.94032 9.22097 6.99893C9.16237 7.05753 9.08288 7.09046 9 7.09046C8.91712 7.09046 8.83763 7.05753 8.77903 6.99893C8.72042 6.94032 8.6875 6.86084 8.6875 6.77796C8.6875 6.69508 8.72042 6.61559 8.77903 6.55698C8.83763 6.49838 8.91712 6.46546 9 6.46546C9.08288 6.46546 9.16237 6.49838 9.22097 6.55698C9.27958 6.61559 9.3125 6.69508 9.3125 6.77796V6.77796ZM12.4375 6.77796C12.4375 6.86084 12.4046 6.94032 12.346 6.99893C12.2874 7.05753 12.2079 7.09046 12.125 7.09046C12.0421 7.09046 11.9626 7.05753 11.904 6.99893C11.8454 6.94032 11.8125 6.86084 11.8125 6.77796C11.8125 6.69508 11.8454 6.61559 11.904 6.55698C11.9626 6.49838 12.0421 6.46546 12.125 6.46546C12.2079 6.46546 12.2874 6.49838 12.346 6.55698C12.4046 6.61559 12.4375 6.69508 12.4375 6.77796V6.77796ZM0.875 9.28629C0.875 10.6196 1.81083 11.7813 3.13083 11.9755C4.03667 12.1088 4.95167 12.2113 5.875 12.283V16.153L9.36167 12.6671C9.5343 12.4952 9.76641 12.3961 10.01 12.3905C11.6363 12.3504 13.2588 12.2119 14.8683 11.9755C16.1892 11.7813 17.125 10.6205 17.125 9.28546V4.27046C17.125 2.93546 16.1892 1.77462 14.8692 1.58046C12.9258 1.29522 10.9642 1.15234 9 1.15296C7.00667 1.15296 5.04667 1.29879 3.13083 1.58046C1.81083 1.77462 0.875 2.93629 0.875 4.27046V9.28546V9.28629Z" stroke="#23C5D9" stroke-width="1.5" stroke-linecap="round" stroke-linejoin="round"/>
</svg>
